<?xml version="1.0" standalone="no"?>
<!DOCTYPE svg PUBLIC "-//W3C//DTD SVG 20010904//EN"
 "http://www.w3.org/TR/2001/REC-SVG-20010904/DTD/svg10.dtd">
<svg version="1.0" xmlns="http://www.w3.org/2000/svg"
 width="16.000000pt" height="16.000000pt" viewBox="0 0 16.000000 16.000000"
 preserveAspectRatio="xMidYMid meet">
<metadata>
Created by potrace 1.11, written by Peter Selinger 2001-2013
</metadata>
<g transform="translate(0.000000,16.000000) scale(0.004000,-0.004000)"
fill="#000000" stroke="none">
<path d="M1800 3993 c-25 -2 -85 -10 -135 -19 -563 -96 -1043 -414 -1353 -894
-113 -173 -230 -462 -267 -655 -9 -44 -21 -100 -26 -125 -20 -86 -23 -413 -5
-550 44 -344 171 -663 367 -926 343 -459 813 -738 1367 -810 139 -18 466 -15
552 5 25 5 81 17 125 26 182 35 462 147 629 251 255 159 495 399 650 649 98
159 190 380 240 580 54 213 71 504 42 725 -53 413 -218 773 -498 1088 -110
124 -320 299 -447 374 -186 109 -412 200 -596 242 -178 40 -428 55 -645 39z
m40 -347 c0 -3 -50 -21 -112 -41 -213 -70 -390 -177 -549 -335 -118 -116 -200
-226 -266 -356 -78 -153 -135 -339 -148 -479 -3 -38 -8 -91 -11 -117 l-6 -48
-165 0 -166 0 6 108 c14 241 118 515 270 712 271 350 652 547 1085 558 34 1
62 0 62 -2z m311 -1136 c175 -54 311 -192 363 -369 9 -32 16 -91 16 -141 0
-141 -47 -261 -144 -365 -205 -221 -567 -221 -772 0 -97 105 -144 224 -144
366 0 235 141 428 369 506 88 30 222 31 312 3z m-846 -672 c10 -40 36 -111 58
-158 34 -71 57 -101 136 -180 107 -107 192 -157 324 -191 97 -25 257 -25 354
0 132 34 217 84 324 191 79 79 102 109 136 180 22 47 48 118 58 158 l17 72
555 0 554 0 -6 -62 c-57 -568 -346 -1054 -810 -1364 -832 -555 -1955 -330
-2516 505 -172 256 -271 534 -304 859 l-6 62 554 0 555 0 17 -72z"/>
</g>
</svg>
